<?xml version="1.0" standalone="no"?><!DOCTYPE svg PUBLIC "-//W3C//DTD SVG 1.1//EN" "http://www.w3.org/Graphics/SVG/1.1/DTD/svg11.dtd"><svg class="icon" height="512" viewBox="0 0 1024 1024" version="1.1" xmlns="http://www.w3.org/2000/svg"><path d="M603.428571 610.742857c-29.257143 14.628571-62.171429 21.942857-95.085714 21.942857-32.914286 0-65.828571-7.314286-95.085714-18.285714-146.285714 21.942857-259.657143 98.742857-310.857143 204.8 7.314286 10.971429 18.285714 25.6 29.257143 36.571429 47.542857-131.657143 201.142857-212.114286 384-212.114286 179.2 0 332.8 80.457143 380.342857 212.114286 10.971429-10.971429 18.285714-21.942857 29.257143-36.571429-54.857143-113.371429-171.885714-186.514286-321.828572-208.457143z" fill="#1097D5" /><path d="M512 640c-182.857143 0-336.457143 80.457143-384 212.114286l10.971429 10.971428c7.314286 7.314286 14.628571 14.628571 21.942857 18.285715 7.314286 3.657143 10.971429 10.971429 18.285714 14.628571 3.657143 7.314286 10.971429 14.628571 18.285714 18.285714 7.314286 3.657143 10.971429 10.971429 18.285715 14.628572 7.314286 3.657143 14.628571 10.971429 21.942857 14.628571 7.314286 3.657143 14.628571 7.314286 18.285714 10.971429 7.314286 3.657143 18.285714 7.314286 25.6 14.628571l21.942857 10.971429c7.314286 3.657143 18.285714 7.314286 29.257143 10.971428 7.314286 3.657143 14.628571 3.657143 21.942857 7.314286 10.971429 3.657143 21.942857 7.314286 29.257143 7.314286 7.314286 0 14.628571 3.657143 21.942857 3.657143 10.971429 3.657143 21.942857 3.657143 36.571429 7.314285 7.314286 0 10.971429 3.657143 18.285714 3.657143 14.628571 3.657143 32.914286 3.657143 51.2 3.657143 18.285714 0 36.571429 0 54.857143-3.657143 7.314286 0 10.971429-3.657143 18.285714-3.657143 10.971429 0 21.942857-3.657143 36.571429-7.314285 7.314286 0 14.628571-3.657143 21.942857-3.657143 10.971429-3.657143 21.942857-3.657143 29.257143-7.314286 7.314286-3.657143 14.628571-3.657143 21.942857-7.314286 10.971429-3.657143 18.285714-7.314286 29.257143-10.971428l21.942857-10.971429c7.314286-3.657143 18.285714-7.314286 25.6-14.628571 7.314286-3.657143 14.628571-7.314286 18.285714-10.971429 7.314286-3.657143 14.628571-10.971429 25.6-14.628571 7.314286-3.657143 10.971429-7.314286 18.285714-14.628572s14.628571-10.971429 21.942858-18.285714c7.314286-3.657143 10.971429-10.971429 18.285714-14.628571 7.314286-7.314286 14.628571-14.628571 18.285714-21.942858l10.971429-10.971428c-58.514286-128-208.457143-208.457143-391.314286-208.457143z" fill="#9CD8FF" /><path d="M310.857143 398.628571a197.485714 193.828571 90 1 0 387.657143 0 197.485714 193.828571 90 1 0-387.657143 0Z" fill="#FFFFFF" /><path d="M512 0C230.4 0 0 230.4 0 512c0 14.628571 0 32.914286 3.657143 47.542857 0 3.657143 0 10.971429 3.657143 14.628572 0 10.971429 3.657143 21.942857 3.657143 32.914285 0 7.314286 3.657143 10.971429 3.657142 14.628572 3.657143 10.971429 3.657143 21.942857 7.314286 29.257143 0 3.657143 3.657143 10.971429 3.657143 14.628571 3.657143 10.971429 7.314286 21.942857 10.971429 36.571429 0 3.657143 3.657143 7.314286 3.657142 7.314285 7.314286 14.628571 10.971429 29.257143 18.285715 40.228572 3.657143 3.657143 3.657143 7.314286 7.314285 10.971428 3.657143 10.971429 10.971429 18.285714 18.285715 29.257143 3.657143 3.657143 7.314286 7.314286 7.314285 14.628572 3.657143 3.657143 7.314286 7.314286 7.314286 10.971428 51.2-106.057143 164.571429-182.857143 310.857143-204.8-80.457143-36.571429-138.971429-117.028571-138.971429-215.771428 0-128 102.4-234.057143 230.4-234.057143S731.428571 266.971429 731.428571 394.971429c0 95.085714-54.857143 175.542857-135.314285 212.114285 149.942857 21.942857 266.971429 95.085714 321.828571 204.8 3.657143-3.657143 3.657143-7.314286 7.314286-10.971428 3.657143-3.657143 7.314286-7.314286 7.314286-14.628572 7.314286-7.314286 10.971429-18.285714 18.285714-29.257143 3.657143-3.657143 3.657143-7.314286 7.314286-10.971428 7.314286-14.628571 14.628571-25.6 18.285714-40.228572 0-3.657143 0-3.657143 3.657143-7.314285 3.657143-10.971429 10.971429-25.6 14.628571-36.571429 0-3.657143 3.657143-10.971429 3.657143-14.628571 3.657143-10.971429 7.314286-21.942857 7.314286-29.257143 0-3.657143 3.657143-10.971429 3.657143-14.628572 3.657143-10.971429 3.657143-21.942857 3.657142-32.914285v-14.628572c0-14.628571 3.657143-32.914286 3.657143-47.542857C1024 230.4 793.6 0 512 0z" fill="#FFFFFF" /><path d="M603.428571 610.742857c80.457143-36.571429 135.314286-117.028571 135.314286-212.114286 0-128-102.4-234.057143-230.4-234.057142s-230.4 106.057143-230.4 234.057142c0 95.085714 58.514286 179.2 138.971429 215.771429 29.257143 10.971429 58.514286 18.285714 95.085714 18.285714 29.257143 0 62.171429-7.314286 91.428571-21.942857z m-292.571428-212.114286c0-109.714286 87.771429-197.485714 193.828571-197.485714 109.714286 0 193.828571 87.771429 193.828572 197.485714s-87.771429 197.485714-193.828572 197.485715-193.828571-87.771429-193.828571-197.485715z" fill="#1097D5" /></svg>